<svg xmlns="http://www.w3.org/2000/svg" xmlns:xlink="http://www.w3.org/1999/xlink" width="500" zoomAndPan="magnify" viewBox="0 0 375 374.999991" height="500" preserveAspectRatio="xMidYMid meet" version="1.0"><defs><clipPath id="81326212e8"><path d="M 0 4.453125 L 375 4.453125 L 375 370.453125 L 0 370.453125 Z M 0 4.453125 " clip-rule="nonzero"/></clipPath></defs><g clip-path="url(#81326212e8)"><path fill="#c4eb00" d="M 195.28125 73.726562 C 167.617188 73.726562 142.230469 83.632812 122.492188 100.097656 C 117.550781 104.222656 112.953125 108.753906 108.765625 113.644531 L 84.949219 41.59375 L 78.527344 22.203125 L 23.917969 22.203125 L 44.375 84.074219 L 81.949219 197.753906 L 91.125 225.503906 C 105.816406 269.941406 146.933594 300.597656 193.746094 301.21875 C 194.261719 301.226562 194.769531 301.1875 195.28125 301.1875 C 245.980469 301.1875 289.035156 267.808594 303.710938 221.945312 L 374.960938 221.945312 C 372.5625 234.617188 368.84375 246.757812 363.832031 258.617188 C 354.617188 280.402344 341.429688 299.976562 324.644531 316.757812 C 307.851562 333.539062 288.296875 346.730469 266.503906 355.945312 C 243.929688 365.488281 219.972656 370.332031 195.289062 370.332031 C 170.609375 370.332031 146.644531 365.496094 124.078125 355.953125 C 102.285156 346.738281 82.730469 333.554688 65.9375 316.773438 C 49.152344 299.984375 35.964844 280.433594 26.75 258.648438 C 17.203125 236.078125 12.355469 212.128906 12.355469 187.453125 C 12.355469 162.777344 17.195312 138.820312 26.75 116.257812 C 28.566406 111.964844 30.535156 107.78125 32.660156 103.667969 L 0 4.90625 L 91.019531 4.90625 L 99.804688 31.453125 C 107.539062 26.714844 115.632812 22.542969 124.070312 18.976562 C 146.644531 9.425781 170.609375 4.582031 195.28125 4.582031 C 219.957031 4.582031 243.929688 9.417969 266.503906 18.960938 C 288.296875 28.171875 307.851562 41.359375 324.644531 58.140625 C 341.4375 74.921875 354.617188 94.503906 363.832031 116.289062 C 368.851562 128.148438 372.570312 140.273438 374.960938 152.953125 L 303.710938 152.953125 C 289.042969 107.089844 245.988281 73.726562 195.28125 73.726562 Z M 195.28125 73.726562 " fill-opacity="1" fill-rule="nonzero"/></g><path fill="#cacaca" d="M 193.820312 132.742188 C 224.054688 132.742188 248.5625 157.246094 248.5625 187.46875 C 248.5625 217.691406 224.054688 242.195312 193.820312 242.195312 C 163.589844 242.195312 139.082031 217.691406 139.082031 187.46875 C 139.082031 157.246094 163.589844 132.742188 193.820312 132.742188 Z M 193.820312 132.742188 " fill-opacity="1" fill-rule="nonzero"/></svg>